M48
; DRILL file {KiCad (6.0.8-1)-1} date Monday, December 26, 2022 at 12:29:05 AM
; FORMAT={-:-/ absolute / metric / decimal}
; #@! TF.CreationDate,2022-12-26T00:29:05-06:00
; #@! TF.GenerationSoftware,Kicad,Pcbnew,(6.0.8-1)-1
; #@! TF.FileFunction,Plated,1,2,PTH
FMAT,2
METRIC
; #@! TA.AperFunction,Plated,PTH,ViaDrill
T1C0.400
; #@! TA.AperFunction,Plated,PTH,ComponentDrill
T2C0.762
; #@! TA.AperFunction,Plated,PTH,ComponentDrill
T3C1.000
; #@! TA.AperFunction,Plated,PTH,ComponentDrill
T4C2.200
%
G90
G05
T1
X102.2Y-114.7
X104.9Y-112.1
X113.9Y-104.8
X118.7Y-106.1
X119.1Y-101.6
X121.2Y-105.8
X134.4Y-104.9
X135.1Y-105.8
X137.7Y-108.4
T2
X110.35Y-95.66
X110.35Y-98.2
X110.35Y-100.74
T3
X99.7Y-95.3
X99.7Y-102.3
X104.7Y-91.8
X104.7Y-98.8
X106.5Y-109.005
X110.0Y-114.005
X113.5Y-109.005
X117.0Y-114.005
X122.85Y-109.005
X126.26Y-87.522
X126.26Y-90.062
X126.35Y-114.005
X128.8Y-87.522
X128.8Y-90.062
X129.85Y-109.005
X133.3Y-93.9
X133.3Y-100.9
X133.35Y-114.005
X137.1Y-111.2
X137.1Y-113.74
X138.3Y-90.4
X138.3Y-97.4
T4
X97.0Y-117.1
X119.0Y-88.1
X141.0Y-117.1
T0
M30
