%TF.GenerationSoftware,KiCad,Pcbnew,(6.0.8-1)-1*%
%TF.CreationDate,2022-12-26T00:29:07-06:00*%
%TF.ProjectId,CAN Distribution With Debug,43414e20-4469-4737-9472-69627574696f,rev?*%
%TF.SameCoordinates,Original*%
%TF.FileFunction,Drillmap*%
%TF.FilePolarity,Positive*%
%FSLAX45Y45*%
G04 Gerber Fmt 4.5, Leading zero omitted, Abs format (unit mm)*
G04 Created by KiCad (PCBNEW (6.0.8-1)-1) date 2022-12-26 00:29:07*
%MOMM*%
%LPD*%
G01*
G04 APERTURE LIST*
%ADD10C,0.100000*%
%ADD11C,0.200000*%
%ADD12C,0.040000*%
%ADD13C,0.076200*%
%ADD14C,0.220000*%
G04 APERTURE END LIST*
D10*
X9400000Y-8510000D02*
X14400000Y-8510000D01*
X14400000Y-8510000D02*
X14400000Y-12010000D01*
X14400000Y-12010000D02*
X9400000Y-12010000D01*
X9400000Y-12010000D02*
X9400000Y-8510000D01*
D11*
D12*
X10200000Y-11450000D02*
X10240000Y-11490000D01*
X10240000Y-11450000D02*
X10200000Y-11490000D01*
X10470000Y-11190000D02*
X10510000Y-11230000D01*
X10510000Y-11190000D02*
X10470000Y-11230000D01*
X11370000Y-10460000D02*
X11410000Y-10500000D01*
X11410000Y-10460000D02*
X11370000Y-10500000D01*
X11850000Y-10590000D02*
X11890000Y-10630000D01*
X11890000Y-10590000D02*
X11850000Y-10630000D01*
X11890000Y-10140000D02*
X11930000Y-10180000D01*
X11930000Y-10140000D02*
X11890000Y-10180000D01*
X12100000Y-10560000D02*
X12140000Y-10600000D01*
X12140000Y-10560000D02*
X12100000Y-10600000D01*
X13420000Y-10470000D02*
X13460000Y-10510000D01*
X13460000Y-10470000D02*
X13420000Y-10510000D01*
X13490000Y-10560000D02*
X13530000Y-10600000D01*
X13530000Y-10560000D02*
X13490000Y-10600000D01*
X13750000Y-10820000D02*
X13790000Y-10860000D01*
X13790000Y-10820000D02*
X13750000Y-10860000D01*
D13*
X11073100Y-9566000D02*
G75*
G03*
X11073100Y-9566000I-38100J0D01*
G01*
X11073100Y-9820000D02*
G75*
G03*
X11073100Y-9820000I-38100J0D01*
G01*
X11073100Y-10074000D02*
G75*
G03*
X11073100Y-10074000I-38100J0D01*
G01*
D10*
X9970000Y-9480000D02*
X9970000Y-9580000D01*
X9920000Y-9530000D02*
X10020000Y-9530000D01*
X9970000Y-10180000D02*
X9970000Y-10280000D01*
X9920000Y-10230000D02*
X10020000Y-10230000D01*
X10470000Y-9130000D02*
X10470000Y-9230000D01*
X10420000Y-9180000D02*
X10520000Y-9180000D01*
X10470000Y-9830000D02*
X10470000Y-9930000D01*
X10420000Y-9880000D02*
X10520000Y-9880000D01*
X10650000Y-10850500D02*
X10650000Y-10950500D01*
X10600000Y-10900500D02*
X10700000Y-10900500D01*
X11000000Y-11350500D02*
X11000000Y-11450500D01*
X10950000Y-11400500D02*
X11050000Y-11400500D01*
X11350000Y-10850500D02*
X11350000Y-10950500D01*
X11300000Y-10900500D02*
X11400000Y-10900500D01*
X11700000Y-11350500D02*
X11700000Y-11450500D01*
X11650000Y-11400500D02*
X11750000Y-11400500D01*
X12285000Y-10850500D02*
X12285000Y-10950500D01*
X12235000Y-10900500D02*
X12335000Y-10900500D01*
X12626000Y-8702250D02*
X12626000Y-8802250D01*
X12576000Y-8752250D02*
X12676000Y-8752250D01*
X12626000Y-8956250D02*
X12626000Y-9056250D01*
X12576000Y-9006250D02*
X12676000Y-9006250D01*
X12635000Y-11350500D02*
X12635000Y-11450500D01*
X12585000Y-11400500D02*
X12685000Y-11400500D01*
X12880000Y-8702250D02*
X12880000Y-8802250D01*
X12830000Y-8752250D02*
X12930000Y-8752250D01*
X12880000Y-8956250D02*
X12880000Y-9056250D01*
X12830000Y-9006250D02*
X12930000Y-9006250D01*
X12985000Y-10850500D02*
X12985000Y-10950500D01*
X12935000Y-10900500D02*
X13035000Y-10900500D01*
X13330000Y-9340000D02*
X13330000Y-9440000D01*
X13280000Y-9390000D02*
X13380000Y-9390000D01*
X13330000Y-10040000D02*
X13330000Y-10140000D01*
X13280000Y-10090000D02*
X13380000Y-10090000D01*
X13335000Y-11350500D02*
X13335000Y-11450500D01*
X13285000Y-11400500D02*
X13385000Y-11400500D01*
X13710000Y-11070000D02*
X13710000Y-11170000D01*
X13660000Y-11120000D02*
X13760000Y-11120000D01*
X13710000Y-11324000D02*
X13710000Y-11424000D01*
X13660000Y-11374000D02*
X13760000Y-11374000D01*
X13830000Y-8990000D02*
X13830000Y-9090000D01*
X13780000Y-9040000D02*
X13880000Y-9040000D01*
X13830000Y-9690000D02*
X13830000Y-9790000D01*
X13780000Y-9740000D02*
X13880000Y-9740000D01*
D14*
X9777783Y-11787782D02*
X9777783Y-11632217D01*
X9622218Y-11632217D01*
X9622218Y-11787782D01*
X9777783Y-11787782D01*
X11977782Y-8887783D02*
X11977782Y-8732218D01*
X11822217Y-8732218D01*
X11822217Y-8887783D01*
X11977782Y-8887783D01*
X14177782Y-11787782D02*
X14177782Y-11632217D01*
X14022217Y-11632217D01*
X14022217Y-11787782D01*
X14177782Y-11787782D01*
D11*
X9652619Y-12325476D02*
X9652619Y-12125476D01*
X9700238Y-12125476D01*
X9728810Y-12135000D01*
X9747857Y-12154048D01*
X9757381Y-12173095D01*
X9766905Y-12211190D01*
X9766905Y-12239762D01*
X9757381Y-12277857D01*
X9747857Y-12296905D01*
X9728810Y-12315952D01*
X9700238Y-12325476D01*
X9652619Y-12325476D01*
X9852619Y-12325476D02*
X9852619Y-12192143D01*
X9852619Y-12230238D02*
X9862143Y-12211190D01*
X9871667Y-12201667D01*
X9890714Y-12192143D01*
X9909762Y-12192143D01*
X9976429Y-12325476D02*
X9976429Y-12192143D01*
X9976429Y-12125476D02*
X9966905Y-12135000D01*
X9976429Y-12144524D01*
X9985952Y-12135000D01*
X9976429Y-12125476D01*
X9976429Y-12144524D01*
X10100238Y-12325476D02*
X10081190Y-12315952D01*
X10071667Y-12296905D01*
X10071667Y-12125476D01*
X10205000Y-12325476D02*
X10185952Y-12315952D01*
X10176429Y-12296905D01*
X10176429Y-12125476D01*
X10433571Y-12325476D02*
X10433571Y-12125476D01*
X10500238Y-12268333D01*
X10566905Y-12125476D01*
X10566905Y-12325476D01*
X10747857Y-12325476D02*
X10747857Y-12220714D01*
X10738333Y-12201667D01*
X10719286Y-12192143D01*
X10681190Y-12192143D01*
X10662143Y-12201667D01*
X10747857Y-12315952D02*
X10728810Y-12325476D01*
X10681190Y-12325476D01*
X10662143Y-12315952D01*
X10652619Y-12296905D01*
X10652619Y-12277857D01*
X10662143Y-12258809D01*
X10681190Y-12249286D01*
X10728810Y-12249286D01*
X10747857Y-12239762D01*
X10843095Y-12192143D02*
X10843095Y-12392143D01*
X10843095Y-12201667D02*
X10862143Y-12192143D01*
X10900238Y-12192143D01*
X10919286Y-12201667D01*
X10928810Y-12211190D01*
X10938333Y-12230238D01*
X10938333Y-12287381D01*
X10928810Y-12306428D01*
X10919286Y-12315952D01*
X10900238Y-12325476D01*
X10862143Y-12325476D01*
X10843095Y-12315952D01*
X11024048Y-12306428D02*
X11033571Y-12315952D01*
X11024048Y-12325476D01*
X11014524Y-12315952D01*
X11024048Y-12306428D01*
X11024048Y-12325476D01*
X11024048Y-12201667D02*
X11033571Y-12211190D01*
X11024048Y-12220714D01*
X11014524Y-12211190D01*
X11024048Y-12201667D01*
X11024048Y-12220714D01*
D12*
X9355000Y-12635000D02*
X9395000Y-12675000D01*
X9395000Y-12635000D02*
X9355000Y-12675000D01*
D11*
X9690714Y-12545476D02*
X9709762Y-12545476D01*
X9728810Y-12555000D01*
X9738333Y-12564524D01*
X9747857Y-12583571D01*
X9757381Y-12621667D01*
X9757381Y-12669286D01*
X9747857Y-12707381D01*
X9738333Y-12726428D01*
X9728810Y-12735952D01*
X9709762Y-12745476D01*
X9690714Y-12745476D01*
X9671667Y-12735952D01*
X9662143Y-12726428D01*
X9652619Y-12707381D01*
X9643095Y-12669286D01*
X9643095Y-12621667D01*
X9652619Y-12583571D01*
X9662143Y-12564524D01*
X9671667Y-12555000D01*
X9690714Y-12545476D01*
X9843095Y-12726428D02*
X9852619Y-12735952D01*
X9843095Y-12745476D01*
X9833571Y-12735952D01*
X9843095Y-12726428D01*
X9843095Y-12745476D01*
X10024048Y-12612143D02*
X10024048Y-12745476D01*
X9976429Y-12535952D02*
X9928810Y-12678809D01*
X10052619Y-12678809D01*
X10166905Y-12545476D02*
X10185952Y-12545476D01*
X10205000Y-12555000D01*
X10214524Y-12564524D01*
X10224048Y-12583571D01*
X10233571Y-12621667D01*
X10233571Y-12669286D01*
X10224048Y-12707381D01*
X10214524Y-12726428D01*
X10205000Y-12735952D01*
X10185952Y-12745476D01*
X10166905Y-12745476D01*
X10147857Y-12735952D01*
X10138333Y-12726428D01*
X10128810Y-12707381D01*
X10119286Y-12669286D01*
X10119286Y-12621667D01*
X10128810Y-12583571D01*
X10138333Y-12564524D01*
X10147857Y-12555000D01*
X10166905Y-12545476D01*
X10357381Y-12545476D02*
X10376429Y-12545476D01*
X10395476Y-12555000D01*
X10405000Y-12564524D01*
X10414524Y-12583571D01*
X10424048Y-12621667D01*
X10424048Y-12669286D01*
X10414524Y-12707381D01*
X10405000Y-12726428D01*
X10395476Y-12735952D01*
X10376429Y-12745476D01*
X10357381Y-12745476D01*
X10338333Y-12735952D01*
X10328810Y-12726428D01*
X10319286Y-12707381D01*
X10309762Y-12669286D01*
X10309762Y-12621667D01*
X10319286Y-12583571D01*
X10328810Y-12564524D01*
X10338333Y-12555000D01*
X10357381Y-12545476D01*
X10509762Y-12745476D02*
X10509762Y-12612143D01*
X10509762Y-12631190D02*
X10519286Y-12621667D01*
X10538333Y-12612143D01*
X10566905Y-12612143D01*
X10585952Y-12621667D01*
X10595476Y-12640714D01*
X10595476Y-12745476D01*
X10595476Y-12640714D02*
X10605000Y-12621667D01*
X10624048Y-12612143D01*
X10652619Y-12612143D01*
X10671667Y-12621667D01*
X10681190Y-12640714D01*
X10681190Y-12745476D01*
X10776429Y-12745476D02*
X10776429Y-12612143D01*
X10776429Y-12631190D02*
X10785952Y-12621667D01*
X10805000Y-12612143D01*
X10833571Y-12612143D01*
X10852619Y-12621667D01*
X10862143Y-12640714D01*
X10862143Y-12745476D01*
X10862143Y-12640714D02*
X10871667Y-12621667D01*
X10890714Y-12612143D01*
X10919286Y-12612143D01*
X10938333Y-12621667D01*
X10947857Y-12640714D01*
X10947857Y-12745476D01*
X11338333Y-12535952D02*
X11166905Y-12793095D01*
X11595476Y-12545476D02*
X11614524Y-12545476D01*
X11633571Y-12555000D01*
X11643095Y-12564524D01*
X11652619Y-12583571D01*
X11662143Y-12621667D01*
X11662143Y-12669286D01*
X11652619Y-12707381D01*
X11643095Y-12726428D01*
X11633571Y-12735952D01*
X11614524Y-12745476D01*
X11595476Y-12745476D01*
X11576428Y-12735952D01*
X11566905Y-12726428D01*
X11557381Y-12707381D01*
X11547857Y-12669286D01*
X11547857Y-12621667D01*
X11557381Y-12583571D01*
X11566905Y-12564524D01*
X11576428Y-12555000D01*
X11595476Y-12545476D01*
X11747857Y-12726428D02*
X11757381Y-12735952D01*
X11747857Y-12745476D01*
X11738333Y-12735952D01*
X11747857Y-12726428D01*
X11747857Y-12745476D01*
X11881190Y-12545476D02*
X11900238Y-12545476D01*
X11919286Y-12555000D01*
X11928809Y-12564524D01*
X11938333Y-12583571D01*
X11947857Y-12621667D01*
X11947857Y-12669286D01*
X11938333Y-12707381D01*
X11928809Y-12726428D01*
X11919286Y-12735952D01*
X11900238Y-12745476D01*
X11881190Y-12745476D01*
X11862143Y-12735952D01*
X11852619Y-12726428D01*
X11843095Y-12707381D01*
X11833571Y-12669286D01*
X11833571Y-12621667D01*
X11843095Y-12583571D01*
X11852619Y-12564524D01*
X11862143Y-12555000D01*
X11881190Y-12545476D01*
X12138333Y-12745476D02*
X12024048Y-12745476D01*
X12081190Y-12745476D02*
X12081190Y-12545476D01*
X12062143Y-12574048D01*
X12043095Y-12593095D01*
X12024048Y-12602619D01*
X12319286Y-12545476D02*
X12224048Y-12545476D01*
X12214524Y-12640714D01*
X12224048Y-12631190D01*
X12243095Y-12621667D01*
X12290714Y-12621667D01*
X12309762Y-12631190D01*
X12319286Y-12640714D01*
X12328809Y-12659762D01*
X12328809Y-12707381D01*
X12319286Y-12726428D01*
X12309762Y-12735952D01*
X12290714Y-12745476D01*
X12243095Y-12745476D01*
X12224048Y-12735952D01*
X12214524Y-12726428D01*
X12395476Y-12545476D02*
X12528809Y-12545476D01*
X12443095Y-12745476D01*
X12595476Y-12545476D02*
X12595476Y-12583571D01*
X12671667Y-12545476D02*
X12671667Y-12583571D01*
X12966905Y-12821667D02*
X12957381Y-12812143D01*
X12938333Y-12783571D01*
X12928809Y-12764524D01*
X12919286Y-12735952D01*
X12909762Y-12688333D01*
X12909762Y-12650238D01*
X12919286Y-12602619D01*
X12928809Y-12574048D01*
X12938333Y-12555000D01*
X12957381Y-12526428D01*
X12966905Y-12516905D01*
X13052619Y-12745476D02*
X13090714Y-12745476D01*
X13109762Y-12735952D01*
X13119286Y-12726428D01*
X13138333Y-12697857D01*
X13147857Y-12659762D01*
X13147857Y-12583571D01*
X13138333Y-12564524D01*
X13128809Y-12555000D01*
X13109762Y-12545476D01*
X13071667Y-12545476D01*
X13052619Y-12555000D01*
X13043095Y-12564524D01*
X13033571Y-12583571D01*
X13033571Y-12631190D01*
X13043095Y-12650238D01*
X13052619Y-12659762D01*
X13071667Y-12669286D01*
X13109762Y-12669286D01*
X13128809Y-12659762D01*
X13138333Y-12650238D01*
X13147857Y-12631190D01*
X13385952Y-12745476D02*
X13385952Y-12545476D01*
X13471667Y-12745476D02*
X13471667Y-12640714D01*
X13462143Y-12621667D01*
X13443095Y-12612143D01*
X13414524Y-12612143D01*
X13395476Y-12621667D01*
X13385952Y-12631190D01*
X13595476Y-12745476D02*
X13576428Y-12735952D01*
X13566905Y-12726428D01*
X13557381Y-12707381D01*
X13557381Y-12650238D01*
X13566905Y-12631190D01*
X13576428Y-12621667D01*
X13595476Y-12612143D01*
X13624048Y-12612143D01*
X13643095Y-12621667D01*
X13652619Y-12631190D01*
X13662143Y-12650238D01*
X13662143Y-12707381D01*
X13652619Y-12726428D01*
X13643095Y-12735952D01*
X13624048Y-12745476D01*
X13595476Y-12745476D01*
X13776428Y-12745476D02*
X13757381Y-12735952D01*
X13747857Y-12716905D01*
X13747857Y-12545476D01*
X13928809Y-12735952D02*
X13909762Y-12745476D01*
X13871667Y-12745476D01*
X13852619Y-12735952D01*
X13843095Y-12716905D01*
X13843095Y-12640714D01*
X13852619Y-12621667D01*
X13871667Y-12612143D01*
X13909762Y-12612143D01*
X13928809Y-12621667D01*
X13938333Y-12640714D01*
X13938333Y-12659762D01*
X13843095Y-12678809D01*
X14014524Y-12735952D02*
X14033571Y-12745476D01*
X14071667Y-12745476D01*
X14090714Y-12735952D01*
X14100238Y-12716905D01*
X14100238Y-12707381D01*
X14090714Y-12688333D01*
X14071667Y-12678809D01*
X14043095Y-12678809D01*
X14024048Y-12669286D01*
X14014524Y-12650238D01*
X14014524Y-12640714D01*
X14024048Y-12621667D01*
X14043095Y-12612143D01*
X14071667Y-12612143D01*
X14090714Y-12621667D01*
X14166905Y-12821667D02*
X14176428Y-12812143D01*
X14195476Y-12783571D01*
X14205000Y-12764524D01*
X14214524Y-12735952D01*
X14224048Y-12688333D01*
X14224048Y-12650238D01*
X14214524Y-12602619D01*
X14205000Y-12574048D01*
X14195476Y-12555000D01*
X14176428Y-12526428D01*
X14166905Y-12516905D01*
D13*
X9395000Y-12919000D02*
G75*
G03*
X9395000Y-12919000I-38100J0D01*
G01*
D11*
X9690714Y-12809476D02*
X9709762Y-12809476D01*
X9728810Y-12819000D01*
X9738333Y-12828524D01*
X9747857Y-12847571D01*
X9757381Y-12885667D01*
X9757381Y-12933286D01*
X9747857Y-12971381D01*
X9738333Y-12990428D01*
X9728810Y-12999952D01*
X9709762Y-13009476D01*
X9690714Y-13009476D01*
X9671667Y-12999952D01*
X9662143Y-12990428D01*
X9652619Y-12971381D01*
X9643095Y-12933286D01*
X9643095Y-12885667D01*
X9652619Y-12847571D01*
X9662143Y-12828524D01*
X9671667Y-12819000D01*
X9690714Y-12809476D01*
X9843095Y-12990428D02*
X9852619Y-12999952D01*
X9843095Y-13009476D01*
X9833571Y-12999952D01*
X9843095Y-12990428D01*
X9843095Y-13009476D01*
X9919286Y-12809476D02*
X10052619Y-12809476D01*
X9966905Y-13009476D01*
X10214524Y-12809476D02*
X10176429Y-12809476D01*
X10157381Y-12819000D01*
X10147857Y-12828524D01*
X10128810Y-12857095D01*
X10119286Y-12895190D01*
X10119286Y-12971381D01*
X10128810Y-12990428D01*
X10138333Y-12999952D01*
X10157381Y-13009476D01*
X10195476Y-13009476D01*
X10214524Y-12999952D01*
X10224048Y-12990428D01*
X10233571Y-12971381D01*
X10233571Y-12923762D01*
X10224048Y-12904714D01*
X10214524Y-12895190D01*
X10195476Y-12885667D01*
X10157381Y-12885667D01*
X10138333Y-12895190D01*
X10128810Y-12904714D01*
X10119286Y-12923762D01*
X10309762Y-12828524D02*
X10319286Y-12819000D01*
X10338333Y-12809476D01*
X10385952Y-12809476D01*
X10405000Y-12819000D01*
X10414524Y-12828524D01*
X10424048Y-12847571D01*
X10424048Y-12866619D01*
X10414524Y-12895190D01*
X10300238Y-13009476D01*
X10424048Y-13009476D01*
X10509762Y-13009476D02*
X10509762Y-12876143D01*
X10509762Y-12895190D02*
X10519286Y-12885667D01*
X10538333Y-12876143D01*
X10566905Y-12876143D01*
X10585952Y-12885667D01*
X10595476Y-12904714D01*
X10595476Y-13009476D01*
X10595476Y-12904714D02*
X10605000Y-12885667D01*
X10624048Y-12876143D01*
X10652619Y-12876143D01*
X10671667Y-12885667D01*
X10681190Y-12904714D01*
X10681190Y-13009476D01*
X10776429Y-13009476D02*
X10776429Y-12876143D01*
X10776429Y-12895190D02*
X10785952Y-12885667D01*
X10805000Y-12876143D01*
X10833571Y-12876143D01*
X10852619Y-12885667D01*
X10862143Y-12904714D01*
X10862143Y-13009476D01*
X10862143Y-12904714D02*
X10871667Y-12885667D01*
X10890714Y-12876143D01*
X10919286Y-12876143D01*
X10938333Y-12885667D01*
X10947857Y-12904714D01*
X10947857Y-13009476D01*
X11338333Y-12799952D02*
X11166905Y-13057095D01*
X11595476Y-12809476D02*
X11614524Y-12809476D01*
X11633571Y-12819000D01*
X11643095Y-12828524D01*
X11652619Y-12847571D01*
X11662143Y-12885667D01*
X11662143Y-12933286D01*
X11652619Y-12971381D01*
X11643095Y-12990428D01*
X11633571Y-12999952D01*
X11614524Y-13009476D01*
X11595476Y-13009476D01*
X11576428Y-12999952D01*
X11566905Y-12990428D01*
X11557381Y-12971381D01*
X11547857Y-12933286D01*
X11547857Y-12885667D01*
X11557381Y-12847571D01*
X11566905Y-12828524D01*
X11576428Y-12819000D01*
X11595476Y-12809476D01*
X11747857Y-12990428D02*
X11757381Y-12999952D01*
X11747857Y-13009476D01*
X11738333Y-12999952D01*
X11747857Y-12990428D01*
X11747857Y-13009476D01*
X11881190Y-12809476D02*
X11900238Y-12809476D01*
X11919286Y-12819000D01*
X11928809Y-12828524D01*
X11938333Y-12847571D01*
X11947857Y-12885667D01*
X11947857Y-12933286D01*
X11938333Y-12971381D01*
X11928809Y-12990428D01*
X11919286Y-12999952D01*
X11900238Y-13009476D01*
X11881190Y-13009476D01*
X11862143Y-12999952D01*
X11852619Y-12990428D01*
X11843095Y-12971381D01*
X11833571Y-12933286D01*
X11833571Y-12885667D01*
X11843095Y-12847571D01*
X11852619Y-12828524D01*
X11862143Y-12819000D01*
X11881190Y-12809476D01*
X12014524Y-12809476D02*
X12138333Y-12809476D01*
X12071667Y-12885667D01*
X12100238Y-12885667D01*
X12119286Y-12895190D01*
X12128809Y-12904714D01*
X12138333Y-12923762D01*
X12138333Y-12971381D01*
X12128809Y-12990428D01*
X12119286Y-12999952D01*
X12100238Y-13009476D01*
X12043095Y-13009476D01*
X12024048Y-12999952D01*
X12014524Y-12990428D01*
X12262143Y-12809476D02*
X12281190Y-12809476D01*
X12300238Y-12819000D01*
X12309762Y-12828524D01*
X12319286Y-12847571D01*
X12328809Y-12885667D01*
X12328809Y-12933286D01*
X12319286Y-12971381D01*
X12309762Y-12990428D01*
X12300238Y-12999952D01*
X12281190Y-13009476D01*
X12262143Y-13009476D01*
X12243095Y-12999952D01*
X12233571Y-12990428D01*
X12224048Y-12971381D01*
X12214524Y-12933286D01*
X12214524Y-12885667D01*
X12224048Y-12847571D01*
X12233571Y-12828524D01*
X12243095Y-12819000D01*
X12262143Y-12809476D01*
X12452619Y-12809476D02*
X12471667Y-12809476D01*
X12490714Y-12819000D01*
X12500238Y-12828524D01*
X12509762Y-12847571D01*
X12519286Y-12885667D01*
X12519286Y-12933286D01*
X12509762Y-12971381D01*
X12500238Y-12990428D01*
X12490714Y-12999952D01*
X12471667Y-13009476D01*
X12452619Y-13009476D01*
X12433571Y-12999952D01*
X12424048Y-12990428D01*
X12414524Y-12971381D01*
X12405000Y-12933286D01*
X12405000Y-12885667D01*
X12414524Y-12847571D01*
X12424048Y-12828524D01*
X12433571Y-12819000D01*
X12452619Y-12809476D01*
X12595476Y-12809476D02*
X12595476Y-12847571D01*
X12671667Y-12809476D02*
X12671667Y-12847571D01*
X12966905Y-13085667D02*
X12957381Y-13076143D01*
X12938333Y-13047571D01*
X12928809Y-13028524D01*
X12919286Y-12999952D01*
X12909762Y-12952333D01*
X12909762Y-12914238D01*
X12919286Y-12866619D01*
X12928809Y-12838048D01*
X12938333Y-12819000D01*
X12957381Y-12790428D01*
X12966905Y-12780905D01*
X13024048Y-12809476D02*
X13147857Y-12809476D01*
X13081190Y-12885667D01*
X13109762Y-12885667D01*
X13128809Y-12895190D01*
X13138333Y-12904714D01*
X13147857Y-12923762D01*
X13147857Y-12971381D01*
X13138333Y-12990428D01*
X13128809Y-12999952D01*
X13109762Y-13009476D01*
X13052619Y-13009476D01*
X13033571Y-12999952D01*
X13024048Y-12990428D01*
X13385952Y-13009476D02*
X13385952Y-12809476D01*
X13471667Y-13009476D02*
X13471667Y-12904714D01*
X13462143Y-12885667D01*
X13443095Y-12876143D01*
X13414524Y-12876143D01*
X13395476Y-12885667D01*
X13385952Y-12895190D01*
X13595476Y-13009476D02*
X13576428Y-12999952D01*
X13566905Y-12990428D01*
X13557381Y-12971381D01*
X13557381Y-12914238D01*
X13566905Y-12895190D01*
X13576428Y-12885667D01*
X13595476Y-12876143D01*
X13624048Y-12876143D01*
X13643095Y-12885667D01*
X13652619Y-12895190D01*
X13662143Y-12914238D01*
X13662143Y-12971381D01*
X13652619Y-12990428D01*
X13643095Y-12999952D01*
X13624048Y-13009476D01*
X13595476Y-13009476D01*
X13776428Y-13009476D02*
X13757381Y-12999952D01*
X13747857Y-12980905D01*
X13747857Y-12809476D01*
X13928809Y-12999952D02*
X13909762Y-13009476D01*
X13871667Y-13009476D01*
X13852619Y-12999952D01*
X13843095Y-12980905D01*
X13843095Y-12904714D01*
X13852619Y-12885667D01*
X13871667Y-12876143D01*
X13909762Y-12876143D01*
X13928809Y-12885667D01*
X13938333Y-12904714D01*
X13938333Y-12923762D01*
X13843095Y-12942809D01*
X14014524Y-12999952D02*
X14033571Y-13009476D01*
X14071667Y-13009476D01*
X14090714Y-12999952D01*
X14100238Y-12980905D01*
X14100238Y-12971381D01*
X14090714Y-12952333D01*
X14071667Y-12942809D01*
X14043095Y-12942809D01*
X14024048Y-12933286D01*
X14014524Y-12914238D01*
X14014524Y-12904714D01*
X14024048Y-12885667D01*
X14043095Y-12876143D01*
X14071667Y-12876143D01*
X14090714Y-12885667D01*
X14166905Y-13085667D02*
X14176428Y-13076143D01*
X14195476Y-13047571D01*
X14205000Y-13028524D01*
X14214524Y-12999952D01*
X14224048Y-12952333D01*
X14224048Y-12914238D01*
X14214524Y-12866619D01*
X14205000Y-12838048D01*
X14195476Y-12819000D01*
X14176428Y-12790428D01*
X14166905Y-12780905D01*
D10*
X9345000Y-13133000D02*
X9345000Y-13233000D01*
X9295000Y-13183000D02*
X9395000Y-13183000D01*
D11*
X9757381Y-13273476D02*
X9643095Y-13273476D01*
X9700238Y-13273476D02*
X9700238Y-13073476D01*
X9681190Y-13102048D01*
X9662143Y-13121095D01*
X9643095Y-13130619D01*
X9843095Y-13254428D02*
X9852619Y-13263952D01*
X9843095Y-13273476D01*
X9833571Y-13263952D01*
X9843095Y-13254428D01*
X9843095Y-13273476D01*
X9976429Y-13073476D02*
X9995476Y-13073476D01*
X10014524Y-13083000D01*
X10024048Y-13092524D01*
X10033571Y-13111571D01*
X10043095Y-13149667D01*
X10043095Y-13197286D01*
X10033571Y-13235381D01*
X10024048Y-13254428D01*
X10014524Y-13263952D01*
X9995476Y-13273476D01*
X9976429Y-13273476D01*
X9957381Y-13263952D01*
X9947857Y-13254428D01*
X9938333Y-13235381D01*
X9928810Y-13197286D01*
X9928810Y-13149667D01*
X9938333Y-13111571D01*
X9947857Y-13092524D01*
X9957381Y-13083000D01*
X9976429Y-13073476D01*
X10166905Y-13073476D02*
X10185952Y-13073476D01*
X10205000Y-13083000D01*
X10214524Y-13092524D01*
X10224048Y-13111571D01*
X10233571Y-13149667D01*
X10233571Y-13197286D01*
X10224048Y-13235381D01*
X10214524Y-13254428D01*
X10205000Y-13263952D01*
X10185952Y-13273476D01*
X10166905Y-13273476D01*
X10147857Y-13263952D01*
X10138333Y-13254428D01*
X10128810Y-13235381D01*
X10119286Y-13197286D01*
X10119286Y-13149667D01*
X10128810Y-13111571D01*
X10138333Y-13092524D01*
X10147857Y-13083000D01*
X10166905Y-13073476D01*
X10357381Y-13073476D02*
X10376429Y-13073476D01*
X10395476Y-13083000D01*
X10405000Y-13092524D01*
X10414524Y-13111571D01*
X10424048Y-13149667D01*
X10424048Y-13197286D01*
X10414524Y-13235381D01*
X10405000Y-13254428D01*
X10395476Y-13263952D01*
X10376429Y-13273476D01*
X10357381Y-13273476D01*
X10338333Y-13263952D01*
X10328810Y-13254428D01*
X10319286Y-13235381D01*
X10309762Y-13197286D01*
X10309762Y-13149667D01*
X10319286Y-13111571D01*
X10328810Y-13092524D01*
X10338333Y-13083000D01*
X10357381Y-13073476D01*
X10509762Y-13273476D02*
X10509762Y-13140143D01*
X10509762Y-13159190D02*
X10519286Y-13149667D01*
X10538333Y-13140143D01*
X10566905Y-13140143D01*
X10585952Y-13149667D01*
X10595476Y-13168714D01*
X10595476Y-13273476D01*
X10595476Y-13168714D02*
X10605000Y-13149667D01*
X10624048Y-13140143D01*
X10652619Y-13140143D01*
X10671667Y-13149667D01*
X10681190Y-13168714D01*
X10681190Y-13273476D01*
X10776429Y-13273476D02*
X10776429Y-13140143D01*
X10776429Y-13159190D02*
X10785952Y-13149667D01*
X10805000Y-13140143D01*
X10833571Y-13140143D01*
X10852619Y-13149667D01*
X10862143Y-13168714D01*
X10862143Y-13273476D01*
X10862143Y-13168714D02*
X10871667Y-13149667D01*
X10890714Y-13140143D01*
X10919286Y-13140143D01*
X10938333Y-13149667D01*
X10947857Y-13168714D01*
X10947857Y-13273476D01*
X11338333Y-13063952D02*
X11166905Y-13321095D01*
X11595476Y-13073476D02*
X11614524Y-13073476D01*
X11633571Y-13083000D01*
X11643095Y-13092524D01*
X11652619Y-13111571D01*
X11662143Y-13149667D01*
X11662143Y-13197286D01*
X11652619Y-13235381D01*
X11643095Y-13254428D01*
X11633571Y-13263952D01*
X11614524Y-13273476D01*
X11595476Y-13273476D01*
X11576428Y-13263952D01*
X11566905Y-13254428D01*
X11557381Y-13235381D01*
X11547857Y-13197286D01*
X11547857Y-13149667D01*
X11557381Y-13111571D01*
X11566905Y-13092524D01*
X11576428Y-13083000D01*
X11595476Y-13073476D01*
X11747857Y-13254428D02*
X11757381Y-13263952D01*
X11747857Y-13273476D01*
X11738333Y-13263952D01*
X11747857Y-13254428D01*
X11747857Y-13273476D01*
X11881190Y-13073476D02*
X11900238Y-13073476D01*
X11919286Y-13083000D01*
X11928809Y-13092524D01*
X11938333Y-13111571D01*
X11947857Y-13149667D01*
X11947857Y-13197286D01*
X11938333Y-13235381D01*
X11928809Y-13254428D01*
X11919286Y-13263952D01*
X11900238Y-13273476D01*
X11881190Y-13273476D01*
X11862143Y-13263952D01*
X11852619Y-13254428D01*
X11843095Y-13235381D01*
X11833571Y-13197286D01*
X11833571Y-13149667D01*
X11843095Y-13111571D01*
X11852619Y-13092524D01*
X11862143Y-13083000D01*
X11881190Y-13073476D01*
X12014524Y-13073476D02*
X12138333Y-13073476D01*
X12071667Y-13149667D01*
X12100238Y-13149667D01*
X12119286Y-13159190D01*
X12128809Y-13168714D01*
X12138333Y-13187762D01*
X12138333Y-13235381D01*
X12128809Y-13254428D01*
X12119286Y-13263952D01*
X12100238Y-13273476D01*
X12043095Y-13273476D01*
X12024048Y-13263952D01*
X12014524Y-13254428D01*
X12233571Y-13273476D02*
X12271667Y-13273476D01*
X12290714Y-13263952D01*
X12300238Y-13254428D01*
X12319286Y-13225857D01*
X12328809Y-13187762D01*
X12328809Y-13111571D01*
X12319286Y-13092524D01*
X12309762Y-13083000D01*
X12290714Y-13073476D01*
X12252619Y-13073476D01*
X12233571Y-13083000D01*
X12224048Y-13092524D01*
X12214524Y-13111571D01*
X12214524Y-13159190D01*
X12224048Y-13178238D01*
X12233571Y-13187762D01*
X12252619Y-13197286D01*
X12290714Y-13197286D01*
X12309762Y-13187762D01*
X12319286Y-13178238D01*
X12328809Y-13159190D01*
X12500238Y-13140143D02*
X12500238Y-13273476D01*
X12452619Y-13063952D02*
X12405000Y-13206809D01*
X12528809Y-13206809D01*
X12595476Y-13073476D02*
X12595476Y-13111571D01*
X12671667Y-13073476D02*
X12671667Y-13111571D01*
X12966905Y-13349667D02*
X12957381Y-13340143D01*
X12938333Y-13311571D01*
X12928809Y-13292524D01*
X12919286Y-13263952D01*
X12909762Y-13216333D01*
X12909762Y-13178238D01*
X12919286Y-13130619D01*
X12928809Y-13102048D01*
X12938333Y-13083000D01*
X12957381Y-13054428D01*
X12966905Y-13044905D01*
X13033571Y-13092524D02*
X13043095Y-13083000D01*
X13062143Y-13073476D01*
X13109762Y-13073476D01*
X13128809Y-13083000D01*
X13138333Y-13092524D01*
X13147857Y-13111571D01*
X13147857Y-13130619D01*
X13138333Y-13159190D01*
X13024048Y-13273476D01*
X13147857Y-13273476D01*
X13224048Y-13092524D02*
X13233571Y-13083000D01*
X13252619Y-13073476D01*
X13300238Y-13073476D01*
X13319286Y-13083000D01*
X13328809Y-13092524D01*
X13338333Y-13111571D01*
X13338333Y-13130619D01*
X13328809Y-13159190D01*
X13214524Y-13273476D01*
X13338333Y-13273476D01*
X13576428Y-13273476D02*
X13576428Y-13073476D01*
X13662143Y-13273476D02*
X13662143Y-13168714D01*
X13652619Y-13149667D01*
X13633571Y-13140143D01*
X13605000Y-13140143D01*
X13585952Y-13149667D01*
X13576428Y-13159190D01*
X13785952Y-13273476D02*
X13766905Y-13263952D01*
X13757381Y-13254428D01*
X13747857Y-13235381D01*
X13747857Y-13178238D01*
X13757381Y-13159190D01*
X13766905Y-13149667D01*
X13785952Y-13140143D01*
X13814524Y-13140143D01*
X13833571Y-13149667D01*
X13843095Y-13159190D01*
X13852619Y-13178238D01*
X13852619Y-13235381D01*
X13843095Y-13254428D01*
X13833571Y-13263952D01*
X13814524Y-13273476D01*
X13785952Y-13273476D01*
X13966905Y-13273476D02*
X13947857Y-13263952D01*
X13938333Y-13244905D01*
X13938333Y-13073476D01*
X14119286Y-13263952D02*
X14100238Y-13273476D01*
X14062143Y-13273476D01*
X14043095Y-13263952D01*
X14033571Y-13244905D01*
X14033571Y-13168714D01*
X14043095Y-13149667D01*
X14062143Y-13140143D01*
X14100238Y-13140143D01*
X14119286Y-13149667D01*
X14128809Y-13168714D01*
X14128809Y-13187762D01*
X14033571Y-13206809D01*
X14205000Y-13263952D02*
X14224048Y-13273476D01*
X14262143Y-13273476D01*
X14281190Y-13263952D01*
X14290714Y-13244905D01*
X14290714Y-13235381D01*
X14281190Y-13216333D01*
X14262143Y-13206809D01*
X14233571Y-13206809D01*
X14214524Y-13197286D01*
X14205000Y-13178238D01*
X14205000Y-13168714D01*
X14214524Y-13149667D01*
X14233571Y-13140143D01*
X14262143Y-13140143D01*
X14281190Y-13149667D01*
X14357381Y-13349667D02*
X14366905Y-13340143D01*
X14385952Y-13311571D01*
X14395476Y-13292524D01*
X14405000Y-13263952D01*
X14414524Y-13216333D01*
X14414524Y-13178238D01*
X14405000Y-13130619D01*
X14395476Y-13102048D01*
X14385952Y-13083000D01*
X14366905Y-13054428D01*
X14357381Y-13044905D01*
X9365711Y-13517711D02*
X9365711Y-13376289D01*
X9224289Y-13376289D01*
X9224289Y-13517711D01*
X9365711Y-13517711D01*
X9643095Y-13356524D02*
X9652619Y-13347000D01*
X9671667Y-13337476D01*
X9719286Y-13337476D01*
X9738333Y-13347000D01*
X9747857Y-13356524D01*
X9757381Y-13375571D01*
X9757381Y-13394619D01*
X9747857Y-13423190D01*
X9633571Y-13537476D01*
X9757381Y-13537476D01*
X9843095Y-13518428D02*
X9852619Y-13527952D01*
X9843095Y-13537476D01*
X9833571Y-13527952D01*
X9843095Y-13518428D01*
X9843095Y-13537476D01*
X9928810Y-13356524D02*
X9938333Y-13347000D01*
X9957381Y-13337476D01*
X10005000Y-13337476D01*
X10024048Y-13347000D01*
X10033571Y-13356524D01*
X10043095Y-13375571D01*
X10043095Y-13394619D01*
X10033571Y-13423190D01*
X9919286Y-13537476D01*
X10043095Y-13537476D01*
X10166905Y-13337476D02*
X10185952Y-13337476D01*
X10205000Y-13347000D01*
X10214524Y-13356524D01*
X10224048Y-13375571D01*
X10233571Y-13413667D01*
X10233571Y-13461286D01*
X10224048Y-13499381D01*
X10214524Y-13518428D01*
X10205000Y-13527952D01*
X10185952Y-13537476D01*
X10166905Y-13537476D01*
X10147857Y-13527952D01*
X10138333Y-13518428D01*
X10128810Y-13499381D01*
X10119286Y-13461286D01*
X10119286Y-13413667D01*
X10128810Y-13375571D01*
X10138333Y-13356524D01*
X10147857Y-13347000D01*
X10166905Y-13337476D01*
X10357381Y-13337476D02*
X10376429Y-13337476D01*
X10395476Y-13347000D01*
X10405000Y-13356524D01*
X10414524Y-13375571D01*
X10424048Y-13413667D01*
X10424048Y-13461286D01*
X10414524Y-13499381D01*
X10405000Y-13518428D01*
X10395476Y-13527952D01*
X10376429Y-13537476D01*
X10357381Y-13537476D01*
X10338333Y-13527952D01*
X10328810Y-13518428D01*
X10319286Y-13499381D01*
X10309762Y-13461286D01*
X10309762Y-13413667D01*
X10319286Y-13375571D01*
X10328810Y-13356524D01*
X10338333Y-13347000D01*
X10357381Y-13337476D01*
X10509762Y-13537476D02*
X10509762Y-13404143D01*
X10509762Y-13423190D02*
X10519286Y-13413667D01*
X10538333Y-13404143D01*
X10566905Y-13404143D01*
X10585952Y-13413667D01*
X10595476Y-13432714D01*
X10595476Y-13537476D01*
X10595476Y-13432714D02*
X10605000Y-13413667D01*
X10624048Y-13404143D01*
X10652619Y-13404143D01*
X10671667Y-13413667D01*
X10681190Y-13432714D01*
X10681190Y-13537476D01*
X10776429Y-13537476D02*
X10776429Y-13404143D01*
X10776429Y-13423190D02*
X10785952Y-13413667D01*
X10805000Y-13404143D01*
X10833571Y-13404143D01*
X10852619Y-13413667D01*
X10862143Y-13432714D01*
X10862143Y-13537476D01*
X10862143Y-13432714D02*
X10871667Y-13413667D01*
X10890714Y-13404143D01*
X10919286Y-13404143D01*
X10938333Y-13413667D01*
X10947857Y-13432714D01*
X10947857Y-13537476D01*
X11338333Y-13327952D02*
X11166905Y-13585095D01*
X11595476Y-13337476D02*
X11614524Y-13337476D01*
X11633571Y-13347000D01*
X11643095Y-13356524D01*
X11652619Y-13375571D01*
X11662143Y-13413667D01*
X11662143Y-13461286D01*
X11652619Y-13499381D01*
X11643095Y-13518428D01*
X11633571Y-13527952D01*
X11614524Y-13537476D01*
X11595476Y-13537476D01*
X11576428Y-13527952D01*
X11566905Y-13518428D01*
X11557381Y-13499381D01*
X11547857Y-13461286D01*
X11547857Y-13413667D01*
X11557381Y-13375571D01*
X11566905Y-13356524D01*
X11576428Y-13347000D01*
X11595476Y-13337476D01*
X11747857Y-13518428D02*
X11757381Y-13527952D01*
X11747857Y-13537476D01*
X11738333Y-13527952D01*
X11747857Y-13518428D01*
X11747857Y-13537476D01*
X11881190Y-13337476D02*
X11900238Y-13337476D01*
X11919286Y-13347000D01*
X11928809Y-13356524D01*
X11938333Y-13375571D01*
X11947857Y-13413667D01*
X11947857Y-13461286D01*
X11938333Y-13499381D01*
X11928809Y-13518428D01*
X11919286Y-13527952D01*
X11900238Y-13537476D01*
X11881190Y-13537476D01*
X11862143Y-13527952D01*
X11852619Y-13518428D01*
X11843095Y-13499381D01*
X11833571Y-13461286D01*
X11833571Y-13413667D01*
X11843095Y-13375571D01*
X11852619Y-13356524D01*
X11862143Y-13347000D01*
X11881190Y-13337476D01*
X12062143Y-13423190D02*
X12043095Y-13413667D01*
X12033571Y-13404143D01*
X12024048Y-13385095D01*
X12024048Y-13375571D01*
X12033571Y-13356524D01*
X12043095Y-13347000D01*
X12062143Y-13337476D01*
X12100238Y-13337476D01*
X12119286Y-13347000D01*
X12128809Y-13356524D01*
X12138333Y-13375571D01*
X12138333Y-13385095D01*
X12128809Y-13404143D01*
X12119286Y-13413667D01*
X12100238Y-13423190D01*
X12062143Y-13423190D01*
X12043095Y-13432714D01*
X12033571Y-13442238D01*
X12024048Y-13461286D01*
X12024048Y-13499381D01*
X12033571Y-13518428D01*
X12043095Y-13527952D01*
X12062143Y-13537476D01*
X12100238Y-13537476D01*
X12119286Y-13527952D01*
X12128809Y-13518428D01*
X12138333Y-13499381D01*
X12138333Y-13461286D01*
X12128809Y-13442238D01*
X12119286Y-13432714D01*
X12100238Y-13423190D01*
X12309762Y-13337476D02*
X12271667Y-13337476D01*
X12252619Y-13347000D01*
X12243095Y-13356524D01*
X12224048Y-13385095D01*
X12214524Y-13423190D01*
X12214524Y-13499381D01*
X12224048Y-13518428D01*
X12233571Y-13527952D01*
X12252619Y-13537476D01*
X12290714Y-13537476D01*
X12309762Y-13527952D01*
X12319286Y-13518428D01*
X12328809Y-13499381D01*
X12328809Y-13451762D01*
X12319286Y-13432714D01*
X12309762Y-13423190D01*
X12290714Y-13413667D01*
X12252619Y-13413667D01*
X12233571Y-13423190D01*
X12224048Y-13432714D01*
X12214524Y-13451762D01*
X12500238Y-13337476D02*
X12462143Y-13337476D01*
X12443095Y-13347000D01*
X12433571Y-13356524D01*
X12414524Y-13385095D01*
X12405000Y-13423190D01*
X12405000Y-13499381D01*
X12414524Y-13518428D01*
X12424048Y-13527952D01*
X12443095Y-13537476D01*
X12481190Y-13537476D01*
X12500238Y-13527952D01*
X12509762Y-13518428D01*
X12519286Y-13499381D01*
X12519286Y-13451762D01*
X12509762Y-13432714D01*
X12500238Y-13423190D01*
X12481190Y-13413667D01*
X12443095Y-13413667D01*
X12424048Y-13423190D01*
X12414524Y-13432714D01*
X12405000Y-13451762D01*
X12595476Y-13337476D02*
X12595476Y-13375571D01*
X12671667Y-13337476D02*
X12671667Y-13375571D01*
X12966905Y-13613667D02*
X12957381Y-13604143D01*
X12938333Y-13575571D01*
X12928809Y-13556524D01*
X12919286Y-13527952D01*
X12909762Y-13480333D01*
X12909762Y-13442238D01*
X12919286Y-13394619D01*
X12928809Y-13366048D01*
X12938333Y-13347000D01*
X12957381Y-13318428D01*
X12966905Y-13308905D01*
X13024048Y-13337476D02*
X13147857Y-13337476D01*
X13081190Y-13413667D01*
X13109762Y-13413667D01*
X13128809Y-13423190D01*
X13138333Y-13432714D01*
X13147857Y-13451762D01*
X13147857Y-13499381D01*
X13138333Y-13518428D01*
X13128809Y-13527952D01*
X13109762Y-13537476D01*
X13052619Y-13537476D01*
X13033571Y-13527952D01*
X13024048Y-13518428D01*
X13385952Y-13537476D02*
X13385952Y-13337476D01*
X13471667Y-13537476D02*
X13471667Y-13432714D01*
X13462143Y-13413667D01*
X13443095Y-13404143D01*
X13414524Y-13404143D01*
X13395476Y-13413667D01*
X13385952Y-13423190D01*
X13595476Y-13537476D02*
X13576428Y-13527952D01*
X13566905Y-13518428D01*
X13557381Y-13499381D01*
X13557381Y-13442238D01*
X13566905Y-13423190D01*
X13576428Y-13413667D01*
X13595476Y-13404143D01*
X13624048Y-13404143D01*
X13643095Y-13413667D01*
X13652619Y-13423190D01*
X13662143Y-13442238D01*
X13662143Y-13499381D01*
X13652619Y-13518428D01*
X13643095Y-13527952D01*
X13624048Y-13537476D01*
X13595476Y-13537476D01*
X13776428Y-13537476D02*
X13757381Y-13527952D01*
X13747857Y-13508905D01*
X13747857Y-13337476D01*
X13928809Y-13527952D02*
X13909762Y-13537476D01*
X13871667Y-13537476D01*
X13852619Y-13527952D01*
X13843095Y-13508905D01*
X13843095Y-13432714D01*
X13852619Y-13413667D01*
X13871667Y-13404143D01*
X13909762Y-13404143D01*
X13928809Y-13413667D01*
X13938333Y-13432714D01*
X13938333Y-13451762D01*
X13843095Y-13470809D01*
X14014524Y-13527952D02*
X14033571Y-13537476D01*
X14071667Y-13537476D01*
X14090714Y-13527952D01*
X14100238Y-13508905D01*
X14100238Y-13499381D01*
X14090714Y-13480333D01*
X14071667Y-13470809D01*
X14043095Y-13470809D01*
X14024048Y-13461286D01*
X14014524Y-13442238D01*
X14014524Y-13432714D01*
X14024048Y-13413667D01*
X14043095Y-13404143D01*
X14071667Y-13404143D01*
X14090714Y-13413667D01*
X14166905Y-13613667D02*
X14176428Y-13604143D01*
X14195476Y-13575571D01*
X14205000Y-13556524D01*
X14214524Y-13527952D01*
X14224048Y-13480333D01*
X14224048Y-13442238D01*
X14214524Y-13394619D01*
X14205000Y-13366048D01*
X14195476Y-13347000D01*
X14176428Y-13318428D01*
X14166905Y-13308905D01*
M02*
