%TF.GenerationSoftware,KiCad,Pcbnew,(6.0.8-1)-1*%
%TF.CreationDate,2022-12-26T00:28:58-06:00*%
%TF.ProjectId,CAN Distribution With Debug,43414e20-4469-4737-9472-69627574696f,rev?*%
%TF.SameCoordinates,Original*%
%TF.FileFunction,Soldermask,Top*%
%TF.FilePolarity,Negative*%
%FSLAX46Y46*%
G04 Gerber Fmt 4.6, Leading zero omitted, Abs format (unit mm)*
G04 Created by KiCad (PCBNEW (6.0.8-1)-1) date 2022-12-26 00:28:58*
%MOMM*%
%LPD*%
G01*
G04 APERTURE LIST*
G04 Aperture macros list*
%AMRoundRect*
0 Rectangle with rounded corners*
0 $1 Rounding radius*
0 $2 $3 $4 $5 $6 $7 $8 $9 X,Y pos of 4 corners*
0 Add a 4 corners polygon primitive as box body*
4,1,4,$2,$3,$4,$5,$6,$7,$8,$9,$2,$3,0*
0 Add four circle primitives for the rounded corners*
1,1,$1+$1,$2,$3*
1,1,$1+$1,$4,$5*
1,1,$1+$1,$6,$7*
1,1,$1+$1,$8,$9*
0 Add four rect primitives between the rounded corners*
20,1,$1+$1,$2,$3,$4,$5,0*
20,1,$1+$1,$4,$5,$6,$7,0*
20,1,$1+$1,$6,$7,$8,$9,0*
20,1,$1+$1,$8,$9,$2,$3,0*%
G04 Aperture macros list end*
%ADD10RoundRect,0.250000X0.250000X0.475000X-0.250000X0.475000X-0.250000X-0.475000X0.250000X-0.475000X0*%
%ADD11RoundRect,0.250000X-0.262500X-0.450000X0.262500X-0.450000X0.262500X0.450000X-0.262500X0.450000X0*%
%ADD12RoundRect,0.250000X0.450000X-0.262500X0.450000X0.262500X-0.450000X0.262500X-0.450000X-0.262500X0*%
%ADD13C,1.800000*%
%ADD14R,1.524000X1.524000*%
%ADD15C,1.524000*%
%ADD16RoundRect,0.250000X-0.450000X0.262500X-0.450000X-0.262500X0.450000X-0.262500X0.450000X0.262500X0*%
%ADD17R,0.510000X0.400000*%
%ADD18C,1.500000*%
%ADD19C,4.400000*%
%ADD20RoundRect,0.150000X-0.825000X-0.150000X0.825000X-0.150000X0.825000X0.150000X-0.825000X0.150000X0*%
%ADD21R,1.700000X1.700000*%
%ADD22O,1.700000X1.700000*%
%ADD23RoundRect,0.250000X-0.375000X-0.625000X0.375000X-0.625000X0.375000X0.625000X-0.375000X0.625000X0*%
G04 APERTURE END LIST*
D10*
%TO.C,C1*%
X117150000Y-105300000D03*
X115250000Y-105300000D03*
%TD*%
D11*
%TO.C,R5*%
X140275000Y-109300000D03*
X142100000Y-109300000D03*
%TD*%
D12*
%TO.C,R1*%
X126200000Y-94712500D03*
X126200000Y-92887500D03*
%TD*%
D13*
%TO.C,X3*%
X122850000Y-109005000D03*
X126350000Y-114005000D03*
X129850000Y-109005000D03*
X133350000Y-114005000D03*
%TD*%
%TO.C,X2*%
X106500000Y-109005000D03*
X110000000Y-114005000D03*
X113500000Y-109005000D03*
X117000000Y-114005000D03*
%TD*%
%TO.C,X1*%
X104700000Y-91800000D03*
X99700000Y-95300000D03*
X104700000Y-98800000D03*
X99700000Y-102300000D03*
%TD*%
D14*
%TO.C,U1*%
X110350000Y-95660000D03*
D15*
X110350000Y-98200000D03*
X110350000Y-100740000D03*
%TD*%
D13*
%TO.C,X4*%
X133300000Y-100900000D03*
X138300000Y-97400000D03*
X133300000Y-93900000D03*
X138300000Y-90400000D03*
%TD*%
D16*
%TO.C,R3*%
X118900000Y-97075000D03*
X118900000Y-98900000D03*
%TD*%
D17*
%TO.C,Q1*%
X136155000Y-105100000D03*
X136155000Y-106100000D03*
X137445000Y-105600000D03*
%TD*%
D16*
%TO.C,R4*%
X125800000Y-97075000D03*
X125800000Y-98900000D03*
%TD*%
D18*
%TO.C,TP1*%
X96900000Y-110200000D03*
%TD*%
D19*
%TO.C,H2*%
X141000000Y-117100000D03*
%TD*%
D20*
%TO.C,U2*%
X120625000Y-100695000D03*
X120625000Y-101965000D03*
X120625000Y-103235000D03*
X120625000Y-104505000D03*
X125575000Y-104505000D03*
X125575000Y-103235000D03*
X125575000Y-101965000D03*
X125575000Y-100695000D03*
%TD*%
D21*
%TO.C,J1*%
X126260000Y-90062500D03*
D22*
X126260000Y-87522500D03*
X128800000Y-90062500D03*
X128800000Y-87522500D03*
%TD*%
D19*
%TO.C,H1*%
X119000000Y-88100000D03*
%TD*%
D12*
%TO.C,R2*%
X128800000Y-94712500D03*
X128800000Y-92887500D03*
%TD*%
D19*
%TO.C,H3*%
X97000000Y-117100000D03*
%TD*%
D18*
%TO.C,TP2*%
X96900000Y-112900000D03*
%TD*%
D21*
%TO.C,J2*%
X137100000Y-111200000D03*
D22*
X137100000Y-113740000D03*
%TD*%
D23*
%TO.C,D1*%
X139200000Y-106900000D03*
X142000000Y-106900000D03*
%TD*%
M02*
